# xmcd
# Track frame offsets:
# 150
# 26299
# 47213
# 71567
# 100517
# 132896
# 149648
# 169224
#
# Disc length: 2376 seconds
# Revision: 1
# Processed by: cddbd v1.5.2PL0 Copyright (c) Steve Scherf et al.
# Submitted via: VisiTrax 2.10.3.257 - For more info visit www.synapsa.com
#
DISCID=6c094608
DTITLE=Principato, Tom - A Part Of Me
DYEAR=2010
DGENRE=Blues
TTITLE0=Don't Wanna Do It
TTITLE1=Sweet Angel
TTITLE2=Part Of Me
TTITLE3=Down The Road
TTITLE4=Down In Lou'siana
TTITLE5=Back Again and Gone
TTITLE6=Stranger's Eyes
TTITLE7=Stranger's Eyes Pt. 2
EXTD=Recorded at Bias Studios, Springfield, VA. Engineered by Bob Dawson. A
EXTD=dditional engineering by Jim Robeson. Digital editing by Bob Dawson. A
EXTD=ll songs mixed by Bob Dawson with Tom Principato. Mastered by Ted Jens
EXTD=en at Sterling Sound, New York, NY. POWERHOUSE POW-129.
EXTT0=
EXTT1=
EXTT2=
EXTT3=
EXTT4=
EXTT5=
EXTT6=
EXTT7=
PLAYORDER=
